<svg xmlns="http://www.w3.org/2000/svg" style="display: none;"> 

<symbol id="chevron" viewBox="0 0 24 24" fill="none">
<path d="M7.69922 9.84961L12 14.1504L16.3008 9.84961" stroke="currentcolor" stroke-width="2" stroke-linecap="round" stroke-linejoin="round"/>
</symbol>

<symbol id="search" viewBox="0 0 24 24" fill="none">
<path d="M18.4088 18.4093L15.3184 15.3188" stroke="currentcolor" stroke-width="2" stroke-linecap="round" stroke-linejoin="round"/>
<path d="M11.2884 16.9846C14.4346 16.9846 16.9851 14.4341 16.9851 11.2879C16.9851 8.14178 14.4346 5.59131 11.2884 5.59131C8.14226 5.59131 5.5918 8.14178 5.5918 11.2879C5.5918 14.4341 8.14226 16.9846 11.2884 16.9846Z" stroke="currentcolor" stroke-width="2" stroke-linecap="round" stroke-linejoin="round"/>
</symbol>

<symbol id="close" viewBox="0 0 24 24" fill="none">
<path d="M20 20L4 4M20 4L4 20" stroke="currentcolor" stroke-width="2" stroke-linecap="round"/>
</symbol>

<symbol id="reload" viewBox="0 0 24 24" fill="none">
<path d="M19.9331 13.041C19.7442 14.481 19.167 15.8424 18.2632 16.9792C17.3595 18.116 16.1633 18.9854 14.803 19.494C13.4427 20.0027 11.9696 20.1315 10.5417 19.8666C9.1138 19.6017 7.78492 18.9531 6.69761 17.9903C5.6103 17.0276 4.80557 15.787 4.36973 14.4017C3.93389 13.0163 3.88338 11.5385 4.22362 10.1266C4.56385 8.71473 5.282 7.42211 6.30104 6.38737C7.32007 5.35263 8.60156 4.6148 10.0081 4.25301C13.9071 3.25301 17.9431 5.26001 19.4331 9.00001" stroke="currentcolor" stroke-width="2" stroke-linecap="round" stroke-linejoin="round"/>
<path d="M20 4V9H15" stroke="currentcolor" stroke-width="2" stroke-linecap="round" stroke-linejoin="round"/>
</symbol>


</svg>