<svg xmlns="http://www.w3.org/2000/svg" style="display: none;"> 


<symbol id="close" viewBox="0 0 24 24" fill="none">
<path d="M20 20L4 4M20 4L4 20" stroke="currentcolor" stroke-width="2" stroke-linecap="round"/>
</symbol>

<symbol id="reload" viewBox="0 0 24 24" fill="none">
<path d="M19.9331 13.041C19.7442 14.481 19.167 15.8424 18.2632 16.9792C17.3595 18.116 16.1633 18.9854 14.803 19.494C13.4427 20.0027 11.9696 20.1315 10.5417 19.8666C9.1138 19.6017 7.78492 18.9531 6.69761 17.9903C5.6103 17.0276 4.80557 15.787 4.36973 14.4017C3.93389 13.0163 3.88338 11.5385 4.22362 10.1266C4.56385 8.71473 5.282 7.42211 6.30104 6.38737C7.32007 5.35263 8.60156 4.6148 10.0081 4.25301C13.9071 3.25301 17.9431 5.26001 19.4331 9.00001" stroke="currentcolor" stroke-width="2" stroke-linecap="round" stroke-linejoin="round"/>
<path d="M20 4V9H15" stroke="currentcolor" stroke-width="2" stroke-linecap="round" stroke-linejoin="round"/>
</symbol>


<symbol id="list" viewBox="0 0 24 24" fill="none">
<path d="M3.875 9.72729C4.77246 9.72729 5.5 8.99466 5.5 8.09092C5.5 7.18718 4.77246 6.45456 3.875 6.45456C2.97754 6.45456 2.25 7.18718 2.25 8.09092C2.25 8.99466 2.97754 9.72729 3.875 9.72729Z" fill="currentcolor"/>
<path d="M3.875 14.6364C4.77246 14.6364 5.5 13.9037 5.5 13C5.5 12.0963 4.77246 11.3636 3.875 11.3636C2.97754 11.3636 2.25 12.0963 2.25 13C2.25 13.9037 2.97754 14.6364 3.875 14.6364Z" fill="currentcolor"/>
<path d="M3.875 19.5454C4.77246 19.5454 5.5 18.8128 5.5 17.9091C5.5 17.0053 4.77246 16.2727 3.875 16.2727C2.97754 16.2727 2.25 17.0053 2.25 17.9091C2.25 18.8128 2.97754 19.5454 3.875 19.5454Z" fill="currentcolor"/>
<path d="M20.9375 8.9091H9.5625C9.1075 8.9091 8.75 8.5491 8.75 8.09092C8.75 7.63274 9.1075 7.27274 9.5625 7.27274H20.9375C21.3925 7.27274 21.75 7.63274 21.75 8.09092C21.75 8.5491 21.3925 8.9091 20.9375 8.9091ZM20.9375 13.8182H9.5625C9.1075 13.8182 8.75 13.4582 8.75 13C8.75 12.5418 9.1075 12.1818 9.5625 12.1818H20.9375C21.3925 12.1818 21.75 12.5418 21.75 13C21.75 13.4582 21.3925 13.8182 20.9375 13.8182ZM20.9375 18.7273H9.5625C9.1075 18.7273 8.75 18.3673 8.75 17.9091C8.75 17.4509 9.1075 17.0909 9.5625 17.0909H20.9375C21.3925 17.0909 21.75 17.4509 21.75 17.9091C21.75 18.3673 21.3925 18.7273 20.9375 18.7273Z" fill="currentcolor"/>
</symbol>

<symbol id="download" viewBox="0 0 24 24" fill="none">
<path fill-rule="evenodd" clip-rule="evenodd" d="M7 22C5.67392 22 4.40215 21.4732 3.46447 20.5355C2.52678 19.5979 2 18.3261 2 17V14C2 13.7348 2.10536 13.4804 2.29289 13.2929C2.48043 13.1054 2.73478 13 3 13C3.26522 13 3.51957 13.1054 3.70711 13.2929C3.89464 13.4804 4 13.7348 4 14V17C4 17.7956 4.31607 18.5587 4.87868 19.1213C5.44129 19.6839 6.20435 20 7 20H17C17.7956 20 18.5587 19.6839 19.1213 19.1213C19.6839 18.5587 20 17.7956 20 17V14C20 13.7348 20.1054 13.4804 20.2929 13.2929C20.4804 13.1054 20.7348 13 21 13C21.2652 13 21.5196 13.1054 21.7071 13.2929C21.8946 13.4804 22 13.7348 22 14V17C22 18.3261 21.4732 19.5979 20.5355 20.5355C19.5979 21.4732 18.3261 22 17 22H7Z" fill="currentcolor"/>
<path fill-rule="evenodd" clip-rule="evenodd" d="M17.7152 10.9C17.8071 10.9939 17.8796 11.105 17.9286 11.227C17.9775 11.349 18.002 11.4794 18.0005 11.6108C17.999 11.7422 17.9716 11.8721 17.9199 11.9929C17.8682 12.1137 17.7932 12.2232 17.6992 12.315L13.1992 16.715C13.0123 16.8976 12.7614 16.9999 12.5002 16.9999C12.2389 16.9999 11.988 16.8976 11.8012 16.715L7.30116 12.315C7.20525 12.2237 7.12843 12.1142 7.07517 11.993C7.0219 11.8717 6.99325 11.7411 6.99088 11.6087C6.98851 11.4763 7.01246 11.3447 7.06135 11.2216C7.11024 11.0986 7.18308 10.9864 7.27566 10.8917C7.36824 10.797 7.4787 10.7217 7.60064 10.67C7.72259 10.6183 7.85357 10.5914 7.986 10.5908C8.11843 10.5902 8.24967 10.6159 8.37209 10.6664C8.49452 10.7169 8.60569 10.7912 8.69916 10.885L11.5002 13.624V5C11.5002 4.73478 11.6055 4.48043 11.793 4.29289C11.9806 4.10536 12.2349 4 12.5002 4C12.7654 4 13.0197 4.10536 13.2073 4.29289C13.3948 4.48043 13.5002 4.73478 13.5002 5V13.624L16.3002 10.885C16.3941 10.7931 16.5052 10.7205 16.6272 10.6716C16.7491 10.6226 16.8796 10.5982 17.011 10.5997C17.1424 10.6012 17.2722 10.6285 17.3931 10.6803C17.5139 10.732 17.6233 10.807 17.7152 10.901V10.9Z" fill="currentcolor"/>
</symbol>

<symbol id="password" viewBox="0 0 24 24" fill="none">
<path d="M10.7331 5.07599C13.0625 4.7984 15.4187 5.29081 17.442 6.47804C19.4653 7.66527 21.0444 9.48207 21.9381 11.651C22.0215 11.8755 22.0215 12.1225 21.9381 12.347C21.5701 13.2377 21.0844 14.0751 20.4941 14.837M14.0841 14.158C13.5183 14.7045 12.7605 15.0068 11.9739 15C11.1873 14.9932 10.4349 14.6777 9.87868 14.1214C9.32245 13.5652 9.00695 12.8128 9.00011 12.0262C8.99328 11.2396 9.29566 10.4818 9.84214 9.91599" stroke="currentcolor" stroke-width="2" stroke-linecap="round" stroke-linejoin="round"/>
<path d="M17.4795 17.499C16.153 18.2848 14.673 18.776 13.1399 18.9394C11.6068 19.1028 10.0565 18.9345 8.59414 18.4459C7.13182 17.9573 5.7917 17.1599 4.66472 16.1077C3.53773 15.0556 2.65026 13.7734 2.06251 12.348C1.97916 12.1235 1.97916 11.8765 2.06251 11.652C2.94914 9.50186 4.50918 7.69725 6.50851 6.509M2.00051 2L22.0005 22" stroke="currentcolor" stroke-width="2" stroke-linecap="round" stroke-linejoin="round"/>
</symbol>

<symbol id="password-off" viewBox="0 0 24 24" fill="none">
<path d="M2.06251 12.3479C1.97916 12.1234 1.97916 11.8764 2.06251 11.6519C2.87421 9.68373 4.25202 8.00091 6.02128 6.81677C7.79053 5.63263 9.87155 5.00049 12.0005 5.00049C14.1295 5.00049 16.2105 5.63263 17.9797 6.81677C19.749 8.00091 21.1268 9.68373 21.9385 11.6519C22.0218 11.8764 22.0218 12.1234 21.9385 12.3479C21.1268 14.316 19.749 15.9988 17.9797 17.183C16.2105 18.3671 14.1295 18.9993 12.0005 18.9993C9.87155 18.9993 7.79053 18.3671 6.02128 17.183C4.25202 15.9988 2.87421 14.316 2.06251 12.3479Z" stroke="currentcolor" stroke-width="2" stroke-linecap="round" stroke-linejoin="round"/>
<path d="M12 15C13.6569 15 15 13.6569 15 12C15 10.3431 13.6569 9 12 9C10.3431 9 9 10.3431 9 12C9 13.6569 10.3431 15 12 15Z" stroke="currentcolor" stroke-width="2" stroke-linecap="round" stroke-linejoin="round"/>
</symbol>

</svg>